<svg width="132" height="37" viewBox="0 0 132 37" fill="none" xmlns="http://www.w3.org/2000/svg">
<path d="M3.27273 32.5157H128.688V3.81943H3.27273V32.5157ZM132 36.1875H0V0.1875H132V36.1875Z" fill="black"/>
<path d="M58.6364 10.3649H61.7533V16.5511H67.4805V10.3649H70.5584V26.0101H67.4805V19.744H61.7533V26.0101H58.6364V10.3649Z" fill="black"/>
<path d="M76.2857 10.3649H86.9221V13.4381H79.3636V16.591H86.026V19.6642H79.3636V22.9369H87.039V26.0101H76.2857V10.3649Z" fill="black"/>
<path d="M98.3377 17.948C99.8571 17.948 100.714 17.07 100.714 15.7529V15.713C100.714 14.2363 99.7792 13.478 98.2597 13.478H95.1818V17.948H98.3377ZM98.5714 10.3649C100.364 10.3649 101.766 10.9236 102.701 11.9613C103.481 12.8394 103.909 14.0766 103.909 15.5534V15.5933C103.909 18.1077 102.662 19.7041 100.87 20.4225L104.299 26.0101H100.675L97.6364 21.0212H95.1818V26.0101H92.0649V10.3649H98.5714Z" fill="black"/>
<path d="M119.727 18.2274V18.1875C119.727 15.5134 117.935 13.2784 115.442 13.2784C112.948 13.2784 111.195 15.4735 111.195 18.1476V18.1875C111.195 20.8616 112.987 23.0966 115.481 23.0966C117.974 23.0966 119.727 20.9015 119.727 18.2274ZM107.961 18.2274V18.1875C107.961 13.7573 111.117 10.0855 115.481 10.0855C119.844 10.0855 122.961 13.6775 122.961 18.1077V18.1476C122.961 22.5777 119.805 26.2496 115.442 26.2496C111.078 26.2496 107.961 22.6576 107.961 18.2274Z" fill="black"/>
<path d="M9.03896 10.3649H19.7922V13.478H12.1558V16.8305H18.8571V19.9436H12.1558V26.0101H9.03896V10.3649Z" fill="black"/>
<path d="M40.4026 10.3649H43.2468L49.8701 19.9835V10.3649H52.9481V26.0101H50.2987L43.4805 16.0722V26.0101H40.4026V10.3649Z" fill="black"/>
<path d="M26.2208 22.4979L24.2727 19.4647L21.7403 26.0101H24.9351L26.2208 22.4979Z" fill="black"/>
<path d="M30.6623 10.2451H27.8182L24.2727 19.4647H27.3117L29.1818 14.3959L31.052 19.4647L32.1818 22.4979L33.4675 26.0101H36.7013L30.6623 10.2451Z" fill="black"/>
</svg>
