<svg width="140" height="38" viewBox="0 0 140 38" fill="none" xmlns="http://www.w3.org/2000/svg">
<path d="M3.47107 33.7219H136.488V3.78851H3.47107V33.7219ZM140 37.552H0V0H140V37.552Z" fill="white"/>
<path d="M62.1901 10.6161H65.4959V17.0691H71.5703V10.6161H74.8347V26.9359H71.5703V20.3996H65.4959V26.9359H62.1901V10.6161Z" fill="white"/>
<path d="M80.9091 10.6161H92.1901V13.8218H84.1736V17.1107H91.2397V20.3164H84.1736V23.7302H92.314V26.9359H80.9091V10.6161Z" fill="white"/>
<path d="M104.298 18.5262C105.909 18.5262 106.818 17.6103 106.818 16.2365V16.1948C106.818 14.6544 105.826 13.8634 104.215 13.8634H100.95V18.5262H104.298ZM104.545 10.6161C106.446 10.6161 107.934 11.199 108.926 12.2814C109.752 13.1973 110.207 14.4879 110.207 16.0283V16.0699C110.207 18.6927 108.884 20.358 106.983 21.1074L110.62 26.9359H106.777L103.554 21.7319H100.95V26.9359H97.6446V10.6161H104.545Z" fill="white"/>
<path d="M126.983 18.8176V18.776C126.983 15.9867 125.083 13.6553 122.438 13.6553C119.793 13.6553 117.934 15.945 117.934 18.7344V18.776C117.934 21.5653 119.835 23.8967 122.479 23.8967C125.124 23.8967 126.983 21.607 126.983 18.8176ZM114.504 18.8176V18.776C114.504 14.1549 117.851 10.3247 122.479 10.3247C127.107 10.3247 130.413 14.0716 130.413 18.6927V18.7344C130.413 23.3555 127.066 27.1856 122.438 27.1856C117.81 27.1856 114.504 23.4388 114.504 18.8176Z" fill="white"/>
<path d="M9.58678 10.6161H20.9917V13.8634H12.8926V17.3605H20V20.6078H12.8926V26.9359H9.58678V10.6161Z" fill="white"/>
<path d="M42.8512 10.6161H45.8678L52.8926 20.6494V10.6161H56.157V26.9359H53.3471L46.1157 16.5695V26.9359H42.8512V10.6161Z" fill="white"/>
<path d="M27.8099 23.2722L25.7438 20.1082L23.0579 26.9359H26.4463L27.8099 23.2722Z" fill="white"/>
<path d="M32.5207 10.4912H29.5041L25.7438 20.1082H28.9669L30.9504 14.821L32.9339 20.1082L34.1322 23.2722L35.4959 26.9359H38.9256L32.5207 10.4912Z" fill="white"/>
</svg>
