<svg width="164" height="163" viewBox="0 0 164 163" fill="none" xmlns="http://www.w3.org/2000/svg">
<path opacity="0.2" d="M98.4214 131.34C134.639 131.34 163.999 101.938 163.999 65.6699C163.999 29.4014 134.639 0 98.4214 0C62.2039 0 32.8438 29.4014 32.8438 65.6699C32.8438 101.938 62.2039 131.34 98.4214 131.34Z" fill="#666666"/>
<path opacity="0.2" d="M40.6649 163C63.1234 163 81.3297 144.768 81.3297 122.278C81.3297 99.7879 63.1234 81.556 40.6649 81.556C18.2063 81.556 0 99.7879 0 122.278C0 144.768 18.2063 163 40.6649 163Z" fill="#666666"/>
<path d="M77.222 42.433L24.9062 68.174V132.458H129.699V68.174L77.222 42.433Z" fill="url(#paint0_linear_817:11879)"/>
<path d="M120.988 63.3382V123.266C120.988 125.886 119.099 128.029 116.789 128.029H41.626C39.3169 128.029 37.4277 125.886 37.4277 123.266V49.0296C37.4277 46.4095 39.3169 44.266 41.626 44.266H103.974L120.988 63.3382Z" fill="white"/>
<path d="M70.1034 65.665H53.4688V68.2057H70.1034V65.665Z" fill="#F2F2F2"/>
<path d="M74.3551 56.9543H53.4238V59.495H74.3551V56.9543Z" fill="#0660F9"/>
<path d="M101.104 65.665H74.0098V68.2057H101.104V65.665Z" fill="#F2F2F2"/>
<path d="M69.9764 74.0778H53.3418V76.6184H69.9764V74.0778Z" fill="#F2F2F2"/>
<path d="M100.977 74.0778H73.8828V76.6184H100.977V74.0778Z" fill="#F2F2F2"/>
<path d="M81.5703 83.6079H53.3418V86.1486H81.5703V83.6079Z" fill="#F2F2F2"/>
<path d="M69.9764 93.1349H53.3418V95.6755H69.9764V93.1349Z" fill="#F2F2F2"/>
<path d="M100.977 93.1349H73.8828V95.6755H100.977V93.1349Z" fill="#F2F2F2"/>
<path d="M69.9764 102.662H53.3418V105.203H69.9764V102.662Z" fill="#F2F2F2"/>
<path d="M84.4679 102.662H73.8828V105.203H84.4679V102.662Z" fill="#F2F2F2"/>
<path d="M69.9764 112.189H53.3418V114.73H69.9764V112.189Z" fill="#F2F2F2"/>
<path d="M100.977 112.189H73.8828V114.73H100.977V112.189Z" fill="#F2F2F2"/>
<path d="M100.977 83.6079H84.9727V86.1486H100.977V83.6079Z" fill="#F2F2F2"/>
<path d="M103.785 58.3337V44.025L120.99 63.0972H108.03C105.696 63.0972 103.785 60.9537 103.785 58.3337Z" fill="#E6E6E6"/>
<path d="M129.699 132.22L125.952 132.459H28.6443L24.9062 132.22L77.2433 87.7245L129.699 132.22Z" fill="url(#paint1_linear_817:11879)"/>
<path d="M24.9062 68.1742L72.6271 91.6475L24.9062 132.458V68.1742Z" fill="url(#paint2_linear_817:11879)"/>
<path d="M129.699 68.1742L81.9785 91.6475L129.699 132.458V68.1742Z" fill="url(#paint3_linear_817:11879)"/>
<path d="M24.8841 59.452C33.6275 59.452 40.7155 52.3541 40.7155 43.5984C40.7155 34.8427 33.6275 27.7448 24.8841 27.7448C16.1407 27.7448 9.05273 34.8427 9.05273 43.5984C9.05273 52.3541 16.1407 59.452 24.8841 59.452Z" fill="#0660F9"/>
<path d="M31.7819 50.8244C31.3231 51.2204 30.5474 51.5889 29.4548 51.9297C28.3622 52.2705 26.9058 52.441 25.0856 52.441C23.7241 52.441 22.5288 52.2389 21.4995 51.8346C20.5249 51.466 19.6417 50.89 18.911 50.1464C18.2031 49.4072 17.6641 48.5228 17.3313 47.5543C16.967 46.495 16.7864 45.3811 16.7973 44.2608C16.7861 43.0805 16.9788 41.9072 17.3671 40.7927C17.7221 39.7728 18.2843 38.8376 19.0183 38.0462C19.7588 37.2635 20.6571 36.6476 21.6537 36.2394C22.6904 35.8031 23.866 35.585 25.1806 35.585C26.1824 35.5799 27.1806 35.7078 28.1489 35.9654C29.0417 36.1988 29.8778 36.6114 30.6066 37.1781C31.3248 37.7502 31.8988 38.4833 32.2824 39.3182C32.6942 40.1908 32.9002 41.2372 32.9002 42.4574C32.9155 43.3793 32.7874 44.298 32.5203 45.1804C32.3057 45.8872 31.9766 46.5539 31.5462 47.1538C31.1947 47.6456 30.7412 48.0555 30.2167 48.3553C29.7683 48.6133 29.2614 48.7524 28.7443 48.7592C28.08 48.7592 27.5735 48.6365 27.225 48.3911C26.905 48.1857 26.6756 47.8655 26.5837 47.4962C26.3493 47.9069 25.9861 48.2286 25.5503 48.4113C25.0788 48.6002 24.5745 48.693 24.0667 48.6843C23.5211 48.6989 22.9798 48.5839 22.4871 48.3486C22.068 48.1411 21.7022 47.8398 21.4179 47.4682C21.1367 47.0956 20.931 46.6714 20.8124 46.2197C20.6847 45.7429 20.6208 45.2512 20.6225 44.7575C20.6167 44.0373 20.7211 43.3205 20.932 42.6319C21.1176 42.0127 21.4211 41.4352 21.8257 40.9314C22.208 40.4601 22.6854 40.0751 23.2266 39.8015C23.7982 39.5182 24.429 39.3755 25.0666 39.3853C25.5753 39.3727 26.0778 39.5004 26.5189 39.7545C26.9388 40.0117 27.2512 40.4128 27.3981 40.8833L27.7065 39.6236H29.5498L28.3142 45.497C28.2422 45.7776 28.1948 46.064 28.1723 46.3528C28.1674 46.4212 28.1814 46.4896 28.2127 46.5506C28.244 46.6116 28.2915 46.6627 28.3499 46.6985C28.4603 46.7688 28.5878 46.8075 28.7186 46.8104C29.0156 46.7992 29.3035 46.705 29.5498 46.5385C29.8612 46.3384 30.1275 46.0755 30.3318 45.7666C30.5935 45.3726 30.7901 44.939 30.9138 44.4823C31.0722 43.8992 31.1474 43.2965 31.1373 42.6923C31.1373 41.7093 30.9987 40.8691 30.7217 40.1718C30.4718 39.5127 30.0595 38.9277 29.523 38.4713C28.9694 38.0191 28.3257 37.6907 27.635 37.5081C26.8253 37.2929 25.9902 37.189 25.1526 37.1993C24.0921 37.1993 23.1544 37.4014 22.3396 37.8057C21.5559 38.1842 20.86 38.7227 20.2963 39.3864C19.7469 40.0442 19.3241 40.7983 19.0495 41.6105C18.7678 42.4252 18.6235 43.2812 18.6228 44.1433C18.6228 46.2682 19.2007 47.8851 20.3566 48.9941C21.5125 50.1032 23.135 50.6581 25.2241 50.6588C26.6176 50.6588 27.813 50.5469 28.8102 50.3232C29.8075 50.0995 30.5523 49.8063 31.0445 49.4439L31.7819 50.8244ZM24.4198 46.8048C25.1325 46.8048 25.7026 46.4639 26.1301 45.7823C26.5576 45.1006 26.7714 44.2287 26.7714 43.1666C26.7714 42.5163 26.6329 42.017 26.3558 41.6687C26.0787 41.3204 25.6725 41.1458 25.137 41.1451C24.4399 41.1451 23.8504 41.4304 23.3685 42.0009C22.8866 42.5715 22.645 43.4911 22.6435 44.7597C22.6435 45.425 22.7742 45.9325 23.0356 46.2823C23.297 46.6321 23.7584 46.8063 24.4198 46.8048Z" fill="white"/>
<path d="M123.096 53.5754L136.322 48.4929L153.855 25.5454L124.634 36.4799L123.096 53.5754Z" fill="#0442BF"/>
<path d="M101.102 32.0137L162.774 17.2285L142.78 72.3644L132.591 43.0635L152.584 26.7389L124.594 39.2139L101.102 32.0137Z" fill="url(#paint4_linear_817:11879)"/>
<defs>
<linearGradient id="paint0_linear_817:11879" x1="77.3025" y1="132.458" x2="77.3025" y2="42.433" gradientUnits="userSpaceOnUse">
<stop stop-color="#2AE4FF"/>
<stop offset="1" stop-color="#0442BF"/>
</linearGradient>
<linearGradient id="paint1_linear_817:11879" x1="77.3025" y1="132.459" x2="77.3025" y2="87.7256" gradientUnits="userSpaceOnUse">
<stop stop-color="#0660F9"/>
<stop offset="1" stop-color="#2AE4FF"/>
</linearGradient>
<linearGradient id="paint2_linear_817:11879" x1="20856.5" y1="68.1742" x2="20856.5" y2="39242.7" gradientUnits="userSpaceOnUse">
<stop stop-color="#0660F9"/>
<stop offset="1" stop-color="#2AE4FF"/>
</linearGradient>
<linearGradient id="paint3_linear_817:11879" x1="-516157" y1="97421" x2="-516157" y2="60483.6" gradientUnits="userSpaceOnUse">
<stop stop-color="#0660F9"/>
<stop offset="1" stop-color="#2AE4FF"/>
</linearGradient>
<linearGradient id="paint4_linear_817:11879" x1="55913.7" y1="22094.7" x2="89959.2" y2="22094.7" gradientUnits="userSpaceOnUse">
<stop stop-color="#0660F9"/>
<stop offset="1" stop-color="#2AE4FF"/>
</linearGradient>
</defs>
</svg>
