<svg width="32" height="32" viewBox="0 0 32 32" fill="none" xmlns="http://www.w3.org/2000/svg">
<path d="M20.667 14.666C21.7716 14.666 22.667 13.7706 22.667 12.666C22.667 11.5614 21.7716 10.666 20.667 10.666C19.5624 10.666 18.667 11.5614 18.667 12.666C18.667 13.7706 19.5624 14.666 20.667 14.666Z" fill="white"/>
<path d="M11.333 14.666C12.4376 14.666 13.333 13.7706 13.333 12.666C13.333 11.5614 12.4376 10.666 11.333 10.666C10.2284 10.666 9.33301 11.5614 9.33301 12.666C9.33301 13.7706 10.2284 14.666 11.333 14.666Z" fill="white"/>
<path d="M16.0003 21.3327C14.027 21.3327 12.3337 20.2527 11.4003 18.666H9.17366C10.2403 21.3993 12.8937 23.3327 16.0003 23.3327C19.107 23.3327 21.7603 21.3993 22.827 18.666H20.6003C19.6803 20.2527 17.9737 21.3327 16.0003 21.3327ZM15.987 2.66602C8.62699 2.66602 2.66699 8.63935 2.66699 15.9993C2.66699 23.3594 8.62699 29.3327 15.987 29.3327C23.3603 29.3327 29.3337 23.3594 29.3337 15.9993C29.3337 8.63935 23.3603 2.66602 15.987 2.66602ZM16.0003 26.666C10.107 26.666 5.33366 21.8927 5.33366 15.9993C5.33366 10.106 10.107 5.33268 16.0003 5.33268C21.8937 5.33268 26.667 10.106 26.667 15.9993C26.667 21.8927 21.8937 26.666 16.0003 26.666Z" fill="white"/>
</svg>
