<svg width="32" height="32" viewBox="0 0 32 32" fill="none" xmlns="http://www.w3.org/2000/svg">
<path d="M25.3333 25.3333H6.66667V6.66667H25.3333V25.3333ZM6.66667 4C5.2 4 4 5.2 4 6.66667V25.3333C4 26.8 5.2 28 6.66667 28H25.3333C26.8 28 28 26.8 28 25.3333V6.66667C28 5.2 26.8 4 25.3333 4H6.66667ZM15.3333 18.6667H16.6667V13.3333H15.3333V18.6667ZM18 18.6667H19.3333V16.6667H21.3333V15.3333H19.3333V14.6667H22V13.3333H18V18.6667ZM12.6667 16V17.3333H11.3333V14.6667H14C14 13.9333 13.4 13.3333 12.6667 13.3333H11.3333C10.6 13.3333 10 13.9333 10 14.6667V17.3333C10 18.0667 10.6 18.6667 11.3333 18.6667H12.6667C13.4 18.6667 14 18.0667 14 17.3333V16H12.6667Z" fill="white"/>
</svg>
