<svg width="22" height="20" viewBox="0 0 22 20" fill="none" xmlns="http://www.w3.org/2000/svg">
<path d="M11 4.18672C14.79 4.18672 18.17 6.31672 19.82 9.68672C19.23 10.9067 18.4 11.9567 17.41 12.8067L18.82 14.2167C20.21 12.9867 21.31 11.4467 22 9.68672C20.27 5.29672 16 2.18672 11 2.18672C9.73 2.18672 8.51 2.38672 7.36 2.75672L9.01 4.40672C9.66 4.27672 10.32 4.18672 11 4.18672ZM9.93 5.32672L12 7.39672C12.57 7.64672 13.03 8.10672 13.28 8.67672L15.35 10.7467C15.43 10.4067 15.49 10.0467 15.49 9.67672C15.5 7.19672 13.48 5.18672 11 5.18672C10.63 5.18672 10.28 5.23672 9.93 5.32672ZM1.01 2.05672L3.69 4.73672C2.06 6.01672 0.77 7.71672 0 9.68672C1.73 14.0767 6 17.1867 11 17.1867C12.52 17.1867 13.98 16.8967 15.32 16.3667L18.74 19.7867L20.15 18.3767L2.42 0.636719L1.01 2.05672ZM8.51 9.55672L11.12 12.1667C11.08 12.1767 11.04 12.1867 11 12.1867C9.62 12.1867 8.5 11.0667 8.5 9.68672C8.5 9.63672 8.51 9.60672 8.51 9.55672ZM5.11 6.15672L6.86 7.90672C6.63 8.45672 6.5 9.05672 6.5 9.68672C6.5 12.1667 8.52 14.1867 11 14.1867C11.63 14.1867 12.23 14.0567 12.77 13.8267L13.75 14.8067C12.87 15.0467 11.95 15.1867 11 15.1867C7.21 15.1867 3.83 13.0567 2.18 9.68672C2.88 8.25672 3.9 7.07672 5.11 6.15672Z" fill="#A4A4A4"/>
</svg>
