<?xml version="1.0" encoding="UTF-8"?>
<svg width="99px" height="42px" viewBox="0 0 99 42" version="1.1" xmlns="http://www.w3.org/2000/svg" xmlns:xlink="http://www.w3.org/1999/xlink">
    <!-- Generator: Sketch 63.1 (92452) - https://sketch.com -->
    <title>Group 5</title>
    <desc>Created with Sketch.</desc>
    <defs>
        <polygon id="path-1" points="0.010571307 24.8305524 98.8857677 24.8305524 98.8857677 0.162451217 0.010571307 0.162451217"></polygon>
    </defs>
    <g id="Page-1" stroke="none" stroke-width="1" fill="none" fill-rule="evenodd">
        <g id="login" transform="translate(-1127.000000, -1086.000000)">
            <g id="Group-5" transform="translate(1127.000000, 1086.000000)">
                <g id="FH-Logo-WHITE-Outline-SINGLE" transform="translate(0.000000, 17.000000)">
                    <g id="Group-3">
                        <mask id="mask-2" fill="white">
                            <use xlink:href="#path-1"></use>
                        </mask>
                        <g id="Clip-2"></g>
                        <path d="M2.4666383,22.3392763 L96.4191294,22.3392763 L96.4191294,2.66445016 L2.4666383,2.66445016 L2.4666383,22.3392763 Z M0,24.8412752 L98.8857677,24.8412752 L98.8857677,0.162451217 L0,0.162451217 L0,24.8412752 Z" id="Fill-1" fill="#C1C1C1" mask="url(#mask-2)"></path>
                    </g>
                    <polyline id="Fill-4" fill="#C1C1C1" points="44 7 46.6012654 7 46.6012654 11.352948 51.3987346 11.352948 51.3987346 7 54 7 54 18 51.3987346 18 51.3987346 13.5843405 46.6012654 13.5843405 46.6012654 18 44 18 44 7"></polyline>
                    <polyline id="Fill-5" fill="#C1C1C1" points="57 7 64.9250389 7 64.9250389 9.15291137 59.2964731 9.15291137 59.2964731 11.3843038 64.2495129 11.3843038 64.2495129 13.5372152 59.2964731 13.5372152 59.2964731 15.847272 65 15.847272 65 18 57 18 57 7"></polyline>
                    <path d="M74.1240164,12.3427628 C75.3636013,12.3427628 76.0743327,11.7143643 76.0743327,10.7870776 L76.0743327,10.7559052 C76.0743327,9.71859841 75.3140333,9.18445048 74.0744484,9.18445048 L71.5455177,9.18445048 L71.5455177,12.3427628 L74.1240164,12.3427628 L74.1240164,12.3427628 Z M69,7 L74.2893072,7 C75.7603379,7 76.9007869,7.39295538 77.6610863,8.11578789 C78.3058556,8.72860024 78.6528314,9.59280868 78.6528314,10.6301155 L78.6528314,10.6614713 C78.6528314,12.4371968 77.6446922,13.5529847 76.1734686,14.0715465 L79,18 L76.0247647,18 L73.5455948,14.480088 L71.5455177,14.480088 L71.5455177,18 L69,18 L69,7 L69,7 Z" id="Fill-6" fill="#C1C1C1"></path>
                    <path d="M89.4032842,12.5304054 L89.4032842,12.5000886 C89.4032842,10.6768313 87.983814,9.15745024 85.9837199,9.15745024 C83.983814,9.15745024 82.5967158,10.6463373 82.5967158,12.4697719 L82.5967158,12.5000886 C82.5967158,14.3231687 84.016186,15.8425498 86.0160918,15.8425498 C88.016186,15.8425498 89.4032842,14.3536627 89.4032842,12.5304054 L89.4032842,12.5304054 Z M80,12.5304054 L80,12.5000886 C80,9.47657345 82.531972,7 86.0160918,7 C89.5000235,7 92,9.44625675 92,12.4697719 L92,12.5000886 C92,15.5236038 89.4676516,18 85.9837199,18 C82.4999765,18 80,15.5539205 80,12.5304054 L80,12.5304054 Z" id="Fill-7" fill="#C1C1C1"></path>
                    <polyline id="Fill-8" fill="#C1C1C1" points="6 7 14 7 14 9.20003667 8.31153535 9.20003667 8.31153535 11.5414493 13.3246492 11.5414493 13.3246492 13.7414859 8.31153535 13.7414859 8.31153535 18 6 18 6 7"></polyline>
                    <polyline id="Fill-9" fill="#C1C1C1" points="30 7 32.2830879 7 37.5563268 13.7730251 37.5563268 7 40 7 40 18 37.8938186 18 32.4438608 11.007118 32.4438608 18 30 18 30 7"></polyline>
                    <polyline id="Fill-10" fill="#C1C1C1" points="20 15.8565455 18.2567189 14 16 18 18.8415439 18 20 15.8565455"></polyline>
                    <polyline id="Fill-11" fill="#C1C1C1" points="24.1403512 7 21.8399146 7 19 13.4282735 21.4512788 13.4282735 22.9576206 9.88650545 24.4641514 13.4282735 24.4569684 13.4282735 25.3550271 15.5502756 25.3552162 15.5502756 26.3918303 18 29 18 24.1403512 7"></polyline>
                </g>
                <path d="M1.53125,9.86425781 L1.53125,6.49414062 L3.65039062,6.49414062 C5.58496094,6.49414062 6.9453125,5.16796875 6.9453125,3.24023438 C6.9453125,1.31933594 5.61230469,0 3.69824219,0 L-1.42108547e-14,0 L-1.42108547e-14,9.86425781 L1.53125,9.86425781 Z M3.28808594,5.20898438 L1.53125,5.20898438 L1.53125,1.29199219 L3.29492187,1.29199219 C4.62109375,1.29199219 5.37988281,2.00292969 5.37988281,3.24707031 C5.37988281,4.49121094 4.62109375,5.20898438 3.28808594,5.20898438 Z M10.8118707,10.0009766 C12.8694879,10.0009766 14.2230035,8.5859375 14.2230035,6.26855469 C14.2230035,3.95800781 12.8626519,2.54296875 10.8118707,2.54296875 C8.76108944,2.54296875 7.40073788,3.95800781 7.40073788,6.26855469 C7.40073788,8.5859375 8.7542535,10.0009766 10.8118707,10.0009766 Z M10.8118707,8.78417969 C9.65659725,8.78417969 8.90464413,7.86816406 8.90464413,6.26855469 C8.90464413,4.67578125 9.65659725,3.75976562 10.8118707,3.75976562 C11.9671441,3.75976562 12.7190973,4.67578125 12.7190973,6.26855469 C12.7190973,7.86816406 11.9739801,8.78417969 10.8118707,8.78417969 Z M18.1989367,9.86425781 L19.696007,4.47753906 L19.7301867,4.47753906 L21.2409289,9.86425781 L22.7790148,9.86425781 L24.7477648,2.67285156 L23.2848742,2.67285156 L21.9723742,8.33300781 L21.9381945,8.33300781 L20.4342883,2.67285156 L19.0124133,2.67285156 L17.5153429,8.33300781 L17.4879992,8.33300781 L16.1754992,2.67285156 L14.6989367,2.67285156 L16.6745226,9.86425781 L18.1989367,9.86425781 Z M28.6074871,10.0009766 C30.254948,10.0009766 31.4990886,9.06445312 31.7041668,7.75195312 L30.3027996,7.75195312 C30.1045574,8.38085938 29.4824871,8.8046875 28.6416668,8.8046875 C27.4590496,8.8046875 26.7070964,7.97753906 26.7070964,6.7265625 L26.7070964,6.63769531 L31.786198,6.63769531 L31.786198,6.13183594 C31.786198,3.95117188 30.5420574,2.54296875 28.5459636,2.54296875 C26.5156902,2.54296875 25.2168621,4.046875 25.2168621,6.30273438 C25.2168621,8.57226562 26.4951824,10.0009766 28.6074871,10.0009766 Z M30.3096355,5.60546875 L26.7139324,5.60546875 C26.7891277,4.51855469 27.5137371,3.73242188 28.5459636,3.73242188 C29.5781902,3.73242188 30.2754558,4.50488281 30.3096355,5.60546875 Z M34.3265843,9.86425781 L34.3265843,5.55761719 C34.3265843,4.5390625 34.914475,3.90332031 35.8646703,3.90332031 C36.1517796,3.90332031 36.4115453,3.9375 36.5277562,3.98535156 L36.5277562,2.61132812 C36.4183812,2.59082031 36.2338109,2.55664062 36.0218968,2.55664062 C35.1742406,2.55664062 34.5316625,3.05566406 34.2924046,3.89648438 L34.258225,3.89648438 L34.258225,2.67285156 L32.8500218,2.67285156 L32.8500218,9.86425781 L34.3265843,9.86425781 Z M40.1277128,10.0009766 C41.7751738,10.0009766 43.0193144,9.06445312 43.2243925,7.75195312 L41.8230253,7.75195312 C41.6247831,8.38085938 41.0027128,8.8046875 40.1618925,8.8046875 C38.9792753,8.8046875 38.2273222,7.97753906 38.2273222,6.7265625 L38.2273222,6.63769531 L43.3064238,6.63769531 L43.3064238,6.13183594 C43.3064238,3.95117188 42.0622831,2.54296875 40.0661894,2.54296875 C38.035916,2.54296875 36.7370878,4.046875 36.7370878,6.30273438 C36.7370878,8.57226562 38.0154081,10.0009766 40.1277128,10.0009766 Z M41.8298613,5.60546875 L38.2341581,5.60546875 C38.3093535,4.51855469 39.0339628,3.73242188 40.0661894,3.73242188 C41.098416,3.73242188 41.7956816,4.50488281 41.8298613,5.60546875 Z M47.0704429,9.98730469 C48.1163413,9.98730469 48.9366538,9.4609375 49.360482,8.640625 L49.3878257,8.640625 L49.3878257,9.86425781 L50.8233726,9.86425781 L50.8233726,0 L49.3399741,0 L49.3399741,3.86914062 L49.3126304,3.86914062 C48.9093101,3.07617188 48.0889976,2.55664062 47.056771,2.55664062 C45.2520835,2.55664062 44.0489585,3.99902344 44.0489585,6.26855469 C44.0489585,8.53808594 45.2520835,9.98730469 47.0704429,9.98730469 Z M47.4600913,8.73632812 C46.291146,8.73632812 45.5597007,7.78613281 45.5597007,6.26855469 C45.5597007,4.7578125 46.291146,3.80078125 47.4600913,3.80078125 C48.594857,3.80078125 49.353646,4.77832031 49.353646,6.26855469 C49.353646,7.77246094 48.594857,8.73632812 47.4600913,8.73632812 Z M58.8435983,9.98730469 C60.6687937,9.98730469 61.8445749,8.55175781 61.8445749,6.26855469 C61.8445749,3.9921875 60.6619577,2.55664062 58.8504343,2.55664062 C57.8318796,2.55664062 57.0115671,3.0625 56.580903,3.89648438 L56.5467233,3.89648438 L56.5467233,0 L55.0701608,0 L55.0701608,9.86425781 L56.5057077,9.86425781 L56.5057077,8.640625 L56.5330515,8.640625 C56.9773874,9.47460938 57.790864,9.98730469 58.8435983,9.98730469 Z M58.447114,8.73632812 C57.3260202,8.73632812 56.5398874,7.765625 56.5398874,6.26855469 C56.5398874,4.78515625 57.3260202,3.80078125 58.447114,3.80078125 C59.6092233,3.80078125 60.3269968,4.7578125 60.3269968,6.26855469 C60.3269968,7.79296875 59.6092233,8.73632812 58.447114,8.73632812 Z M63.4347659,12.5439453 C64.9318362,12.5439453 65.6359378,11.9833984 66.2511722,10.2402344 L68.9513675,2.67285156 L67.3927737,2.67285156 L65.5675784,8.52441406 L65.5470706,8.52441406 L63.7218753,2.67285156 L62.1222659,2.67285156 L64.7199222,9.87109375 C64.7199222,9.87792969 64.5900393,10.3017578 64.5900393,10.3154297 C64.3644534,11.0537109 64.0021487,11.3408203 63.311719,11.3408203 C63.1886722,11.3408203 62.9425784,11.3408203 62.8332034,11.3134766 L62.8332034,12.5097656 C62.9425784,12.5302734 63.318555,12.5439453 63.4347659,12.5439453 Z" id="Poweredby" fill="#C1C1C1" fill-rule="nonzero"></path>
            </g>
        </g>
    </g>
</svg>