<svg width="40" height="26" viewBox="0 0 40 26" fill="none" xmlns="http://www.w3.org/2000/svg">
<g clip-path="url(#clip0_3527_22442)">
<path d="M36.4186 0H3.58144C3.44369 0 3.30836 0 3.17061 0C3.05462 0 2.94103 0 2.82504 0.00483325C2.57371 0.0120831 2.31996 0.0265829 2.07347 0.0700822C1.82214 0.115998 1.58772 0.188497 1.35814 0.306912C1.1334 0.420493 0.927984 0.570324 0.749154 0.749154C0.570324 0.927984 0.420493 1.1334 0.306912 1.35814C0.190913 1.58772 0.115998 1.82214 0.0724988 2.07347C0.0265829 2.32238 0.0120831 2.57612 0.00483325 2.82745C0.00241663 2.94345 0 3.05703 0 3.17303C0 3.30836 0 3.44611 0 3.58144V22.0251C0 22.1629 0 22.2982 0 22.436C0 22.552 0 22.6655 0.00483325 22.7815C0.0120831 23.0329 0.0265829 23.2842 0.0724988 23.5331C0.118415 23.7844 0.190913 24.0188 0.306912 24.2484C0.420493 24.4732 0.570324 24.6786 0.749154 24.8574C0.927984 25.0362 1.1334 25.1861 1.35814 25.2997C1.58772 25.4157 1.82214 25.4906 2.07347 25.5365C2.32238 25.58 2.57371 25.5969 2.82504 25.6017C2.94103 25.6042 3.05462 25.6066 3.17061 25.6066C3.30594 25.6066 3.44369 25.6066 3.58144 25.6066H36.4186C36.5539 25.6066 36.6916 25.6066 36.8294 25.6066C36.9454 25.6066 37.059 25.6066 37.175 25.6017C37.4263 25.5945 37.6776 25.58 37.9265 25.5365C38.1779 25.4906 38.4123 25.4181 38.6419 25.2997C38.8666 25.1861 39.072 25.0362 39.2508 24.8574C39.4297 24.6786 39.5795 24.4732 39.6931 24.2484C39.8091 24.0188 39.884 23.7844 39.9275 23.5331C39.9734 23.2842 39.9879 23.0329 39.9928 22.7815C39.9952 22.6655 39.9976 22.552 39.9976 22.436C39.9976 22.2982 39.9976 22.1629 39.9976 22.0251V3.58144C39.9976 3.44369 39.9976 3.30836 39.9976 3.17061C39.9976 3.05462 39.9976 2.94103 39.9928 2.82504C39.9855 2.57371 39.971 2.31996 39.9275 2.07347C39.8816 1.82214 39.8091 1.58772 39.6931 1.35814C39.5795 1.1334 39.4297 0.927984 39.2508 0.749154C39.072 0.570324 38.8666 0.420493 38.6419 0.306912C38.4123 0.190913 38.1779 0.115998 37.9265 0.0700822C37.6776 0.0265829 37.4239 0.0096665 37.175 0.00483325C37.059 0.00241663 36.9454 0 36.8294 0C36.6941 0 36.5563 0 36.4186 0V0Z" fill="black"/>
<path d="M36.419 0.853088H36.8226C36.9313 0.853088 37.0425 0.855505 37.1512 0.857922C37.3422 0.862755 37.5669 0.872421 37.7747 0.911087C37.956 0.94492 38.1082 0.993253 38.2532 1.06817C38.3982 1.14067 38.5287 1.23733 38.6447 1.35333C38.7607 1.46933 38.8574 1.60224 38.9299 1.74724C39.0048 1.89224 39.0531 2.04449 39.0845 2.22573C39.1208 2.43115 39.1329 2.65589 39.1377 2.84922C39.1401 2.95797 39.1425 3.06672 39.1425 3.17788C39.1425 3.31321 39.1425 3.44613 39.1425 3.58146V22.0252C39.1425 22.1605 39.1425 22.2934 39.1425 22.4311C39.1425 22.5399 39.1425 22.6486 39.1377 22.7574C39.1329 22.9507 39.1232 23.1731 39.0845 23.3833C39.0531 23.5645 39.0024 23.7144 38.9299 23.8594C38.855 24.0044 38.7607 24.1373 38.6447 24.2533C38.5287 24.3693 38.3982 24.4659 38.2508 24.5384C38.1058 24.6134 37.9536 24.6617 37.7747 24.6955C37.5621 24.7342 37.3277 24.7439 37.1537 24.7487C37.0425 24.7511 36.9338 24.7535 36.8202 24.7535C36.6848 24.7535 36.5519 24.7535 36.4166 24.7535H3.57705C3.44414 24.7535 3.31122 24.7535 3.17589 24.7535C3.06473 24.7535 2.95598 24.7535 2.84965 24.7487C2.67082 24.7439 2.43641 24.7342 2.22616 24.6955C2.04491 24.6641 1.89267 24.6134 1.74525 24.5384C1.60025 24.4659 1.46976 24.3693 1.35376 24.2533C1.23776 24.1373 1.14351 24.0068 1.0686 23.8618C0.99368 23.7168 0.945347 23.5645 0.911515 23.3809C0.872849 23.1731 0.863182 22.9483 0.858349 22.7574C0.855932 22.6486 0.853516 22.5399 0.853516 22.4311V3.17788C0.853516 3.06913 0.853516 2.96039 0.858349 2.84922C0.863182 2.65831 0.872849 2.43356 0.911515 2.22332C0.942931 2.04207 0.99368 1.88982 1.0686 1.74482C1.14109 1.59983 1.23776 1.46933 1.35376 1.35333C1.46976 1.23733 1.60025 1.14308 1.74525 1.06817C1.89025 0.993253 2.0425 0.94492 2.22374 0.911087C2.43157 0.872421 2.65632 0.862755 2.84723 0.857922C2.95598 0.855505 3.06715 0.853088 3.17348 0.853088H36.419Z" fill="white"/>
<path d="M10.9222 8.61288C11.2653 8.18514 11.4973 7.60998 11.4369 7.02032C10.9367 7.04449 10.3228 7.3514 9.97 7.77915C9.65101 8.14647 9.37068 8.7458 9.44318 9.30887C10.0063 9.35721 10.5693 9.02855 10.9222 8.61047" fill="black"/>
<path d="M11.4291 9.42003C10.6123 9.37169 9.91628 9.88402 9.5272 9.88402C9.13812 9.88402 8.5388 9.44419 7.89356 9.45628C7.05258 9.46836 6.27201 9.94443 5.84426 10.7008C4.96703 12.2136 5.61227 14.4587 6.46534 15.6936C6.881 16.3026 7.37882 16.9744 8.03856 16.9502C8.65963 16.9261 8.90371 16.5467 9.66012 16.5467C10.4165 16.5467 10.6364 16.9502 11.2938 16.9381C11.9777 16.9261 12.403 16.3267 12.8186 15.7178C13.2947 15.0218 13.4881 14.3524 13.5026 14.3137C13.4905 14.3016 12.1855 13.8014 12.1734 12.3006C12.1613 11.044 13.1981 10.4471 13.2464 10.4084C12.6616 9.54327 11.7457 9.44419 11.4291 9.42003Z" fill="black"/>
<path d="M18.5429 7.71875C20.3192 7.71875 21.5565 8.94398 21.5565 10.725C21.5565 12.5061 20.295 13.7458 18.4994 13.7458H16.5323V16.8729H15.1113V7.71875H18.5429ZM16.5323 12.5544H18.1635C19.4008 12.5544 20.1041 11.8874 20.1041 10.7347C20.1041 9.58197 19.4008 8.91981 18.1684 8.91981H16.5323V12.5544Z" fill="black"/>
<path d="M21.9282 14.9783C21.9282 13.8111 22.8223 13.0933 24.4101 13.0039L26.237 12.8952V12.3804C26.237 11.6385 25.7368 11.1939 24.8982 11.1939C24.1056 11.1939 23.6102 11.5733 23.4893 12.1702H22.194C22.2689 10.9643 23.2984 10.0774 24.9466 10.0774C26.5947 10.0774 27.5976 10.9329 27.5976 12.2717V16.8705H26.2854V15.7734H26.254C25.8673 16.5153 25.0239 16.9841 24.1467 16.9841C22.8393 16.9841 21.9258 16.1721 21.9258 14.9735L21.9282 14.9783ZM26.237 14.3766V13.8497L24.5937 13.9512C23.7745 14.0092 23.3129 14.3693 23.3129 14.9421C23.3129 15.5148 23.7962 15.9063 24.5309 15.9063C25.4879 15.9063 26.237 15.2466 26.237 14.3766Z" fill="black"/>
<path d="M28.8394 19.3306V18.2214C28.9409 18.2455 29.1681 18.2455 29.2841 18.2455C29.9197 18.2455 30.2604 17.9797 30.4706 17.2934C30.4706 17.2813 30.5915 16.8874 30.5915 16.8802L28.1797 10.1982H29.6635L31.3503 15.6283H31.3745L33.0613 10.1982H34.5088L32.01 17.2209C31.4397 18.84 30.78 19.3596 29.3953 19.3596C29.2817 19.3596 28.9385 19.3475 28.837 19.3282L28.8394 19.3306Z" fill="black"/>
</g>
<defs>
<clipPath id="clip0_3527_22442">
<rect width="40" height="25.609" fill="white"/>
</clipPath>
</defs>
</svg>
