<svg width="30" height="21" viewBox="0 0 30 21" fill="none" xmlns="http://www.w3.org/2000/svg">
<path d="M6.36602 4.1001H4.91602V17.7834H6.36602V4.1001Z" fill="black"/>
<path d="M9.46758 4.1001H8.01758V16.0501H9.46758V4.1001Z" fill="black"/>
<path d="M12.5496 4.1001H11.0996V16.0501H12.5496V4.1001Z" fill="black"/>
<path d="M15.6492 4.1001H14.1992V16.0501H15.6492V4.1001Z" fill="black"/>
<path d="M18.7332 4.1001H17.2832V16.0501H18.7332V4.1001Z" fill="black"/>
<path d="M21.8328 4.1001H20.3828V16.0501H21.8328V4.1001Z" fill="black"/>
<path d="M24.9168 4.1001H23.4668V17.7834H24.9168V4.1001Z" fill="black"/>
<path d="M26.5339 20.7335H3.35052C1.98385 20.7335 0.867188 19.6168 0.867188 18.2501V3.45013C0.867188 2.08346 1.98385 0.966797 3.35052 0.966797H26.5339C27.9005 0.966797 29.0172 2.08346 29.0172 3.45013V18.2501C29.0172 19.6168 27.9005 20.7335 26.5339 20.7335ZM3.35052 2.35013C2.75052 2.35013 2.26719 2.83346 2.26719 3.43346V18.2335C2.26719 18.8335 2.75052 19.3168 3.35052 19.3168H26.5339C27.1339 19.3168 27.6172 18.8335 27.6172 18.2335V3.45013C27.6172 2.85013 27.1339 2.3668 26.5339 2.3668H3.35052V2.35013Z" fill="black"/>
</svg>
