<svg width="140" height="26" viewBox="0 0 140 26" fill="none" xmlns="http://www.w3.org/2000/svg">
<path fill-rule="evenodd" clip-rule="evenodd" d="M12.8909 17.728H10.5056L8.71682 10.9039C8.63192 10.59 8.45165 10.3125 8.18648 10.1817C7.52472 9.85301 6.79551 9.59142 6 9.45949V9.19676H9.84263C10.373 9.19676 10.7707 9.59142 10.837 10.0498L11.7651 14.9722L14.1493 9.19676H16.4684L12.8909 17.728ZM17.7938 17.728H15.541L17.396 9.19678H19.6488L17.7938 17.728ZM22.5642 11.5602C22.6305 11.1007 23.0283 10.838 23.4923 10.838C24.2216 10.772 25.0159 10.9039 25.6788 11.2315L26.0766 9.39466C25.4137 9.13193 24.6844 9 24.0227 9C21.8362 9 20.2452 10.1817 20.2452 11.8218C20.2452 13.0694 21.3721 13.7246 22.1677 14.1192C23.0283 14.5127 23.3598 14.7755 23.2935 15.169C23.2935 15.7593 22.6305 16.022 21.9688 16.022C21.1733 16.022 20.3778 15.8252 19.6497 15.4966L19.252 17.3345C20.0475 17.6621 20.9081 17.794 21.7036 17.794C24.1553 17.8588 25.6788 16.6783 25.6788 14.9063C25.6788 12.6748 22.5642 12.544 22.5642 11.5602ZM33.5618 17.728L31.773 9.19678H29.8517C29.454 9.19678 29.0562 9.45951 28.9236 9.85303L25.6113 17.728H27.9304L28.3933 16.4815H31.2427L31.5079 17.728H33.5618ZM30.1835 11.4942L30.8453 14.7095H28.9902L30.1835 11.4942Z" fill="#172B85"/>
<path fill-rule="evenodd" clip-rule="evenodd" d="M69.5215 18.5459C68.1952 19.6919 66.4748 20.3838 64.5947 20.3838C60.4003 20.3838 57 16.94 57 12.6919C57 8.44378 60.4003 5 64.5947 5C66.4748 5 68.1952 5.69185 69.5215 6.83787C70.8478 5.69185 72.5682 5 74.4483 5C78.6427 5 82.043 8.44378 82.043 12.6919C82.043 16.94 78.6427 20.3838 74.4483 20.3838C72.5682 20.3838 70.8478 19.6919 69.5215 18.5459Z" fill="#ED0006"/>
<path fill-rule="evenodd" clip-rule="evenodd" d="M69.5215 18.5459C71.1542 17.1351 72.1895 15.0359 72.1895 12.6919C72.1895 10.3479 71.1542 8.24871 69.5215 6.83787C70.8478 5.69185 72.5682 5 74.4483 5C78.6427 5 82.043 8.44378 82.043 12.6919C82.043 16.94 78.6427 20.3838 74.4483 20.3838C72.5682 20.3838 70.8478 19.6919 69.5215 18.5459Z" fill="#F9A000"/>
<path fill-rule="evenodd" clip-rule="evenodd" d="M69.5215 18.546C71.1542 17.1352 72.1895 15.036 72.1895 12.692C72.1895 10.3479 71.1542 8.24878 69.5215 6.83795C67.8888 8.24878 66.8535 10.3479 66.8535 12.692C66.8535 15.036 67.8888 17.1352 69.5215 18.546Z" fill="#FF5E00"/>
<rect x="100" width="40" height="26" rx="2" fill="#1F72CD"/>
<path fill-rule="evenodd" clip-rule="evenodd" d="M107.684 9L104 17.1526H108.41L108.957 15.8527H110.207L110.754 17.1526H115.608V16.1605L116.041 17.1526H118.552L118.984 16.1395V17.1526H129.08L130.308 15.8865L131.457 17.1526L136.643 17.1631L132.947 13.0991L136.643 9H131.538L130.343 10.2427L129.229 9H118.246L117.303 11.1043L116.338 9H111.937V9.95834L111.447 9H107.684ZM108.537 10.1577H110.686L113.13 15.686V10.1577H115.485L117.372 14.1215L119.112 10.1577H121.455V16.0077H120.029L120.018 11.4237L117.939 16.0077H116.663L114.573 11.4237V16.0077H111.64L111.084 14.6962H108.08L107.525 16.0066H105.953L108.537 10.1577ZM128.557 10.1577H122.76V16.0043H128.468L130.307 14.0666L132.081 16.0043H133.934L131.24 13.0979L133.934 10.1577H132.161L130.331 12.0731L128.557 10.1577ZM109.584 11.1475L108.594 13.4838H110.572L109.584 11.1475ZM124.191 12.4369V11.3689V11.3679H127.809L129.387 13.0758L127.739 14.793H124.191V13.6271H127.354V12.4369H124.191Z" fill="white"/>
</svg>
