<svg width="30" height="29" viewBox="0 0 30 29" fill="none" xmlns="http://www.w3.org/2000/svg">
<path d="M20.7428 13.566C21.1288 13.566 21.4428 13.252 21.4428 12.866V11.814C21.4428 10.668 20.7368 9.76802 19.8368 9.76602L18.0548 9.75802V8.28002C18.0548 7.89402 17.7408 7.58002 17.3548 7.58002C16.9688 7.58002 16.6548 7.89402 16.6548 8.28002V9.75202L13.4548 9.74002V8.28002C13.4548 7.89402 13.1408 7.58002 12.7548 7.58002C12.3688 7.58002 12.0548 7.89402 12.0548 8.28002V9.73402L10.0848 9.72602H10.0788C9.7128 9.72602 9.3568 9.88002 9.0768 10.16C8.6888 10.546 8.4668 11.134 8.4668 11.776V18.266C8.4668 19.414 9.1748 20.314 10.0788 20.314H12.0548V21.76C12.0548 22.146 12.3688 22.46 12.7548 22.46C13.1408 22.46 13.4548 22.146 13.4548 21.76V20.314H16.6548V21.76C16.6548 22.146 16.9688 22.46 17.3548 22.46C17.7408 22.46 18.0548 22.146 18.0548 21.76V20.314H19.8308C20.7348 20.314 21.4428 19.414 21.4428 18.266V17.384C21.4428 16.998 21.1288 16.684 20.7428 16.684C20.3568 16.684 20.0428 16.998 20.0428 17.384V18.266C20.0428 18.64 19.8868 18.874 19.8168 18.914H10.0948C10.0248 18.872 9.8688 18.64 9.8688 18.266V11.776C9.8688 11.402 10.0248 11.168 10.0948 11.128L19.8168 11.166C19.8868 11.208 20.0428 11.44 20.0428 11.814V12.866C20.0428 13.252 20.3568 13.566 20.7428 13.566Z" fill="#ED9800"/>
<path d="M14.955 28.928C7.19295 28.928 0.876953 22.612 0.876953 14.85C0.876953 7.08797 7.19295 0.771973 14.955 0.771973C22.717 0.771973 29.033 7.08797 29.033 14.85C29.033 22.612 22.717 28.928 14.955 28.928ZM14.955 2.16997C7.96295 2.16997 2.27695 7.85797 2.27695 14.848C2.27695 21.838 7.96495 27.526 14.955 27.526C21.945 27.526 27.633 21.838 27.633 14.848C27.633 7.85797 21.945 2.16997 14.955 2.16997Z" fill="#ED9800"/>
</svg>
