<svg width="45" height="24" viewBox="0 0 45 24" fill="none" xmlns="http://www.w3.org/2000/svg">
<path d="M33.0319 0H11.9681C5.38564 0 0 5.38564 0 11.9681C0 18.5505 5.38564 23.9362 11.9681 23.9362H33.0319C39.6144 23.9362 45 18.5505 45 11.9681C45 5.38564 39.6144 0 33.0319 0Z" fill="white"/>
<path d="M33.0319 0.969415C34.51 0.969415 35.9461 1.26263 37.2985 1.8371C38.609 2.39362 39.7819 3.18949 40.7992 4.2008C41.8105 5.2121 42.6064 6.39096 43.1629 7.70146C43.7374 9.05386 44.0306 10.49 44.0306 11.9681C44.0306 13.4461 43.7374 14.8823 43.1629 16.2347C42.6064 17.5452 41.8105 18.7181 40.7992 19.7354C39.7879 20.7467 38.609 21.5426 37.2985 22.0991C35.9461 22.6735 34.51 22.9668 33.0319 22.9668H11.9681C10.49 22.9668 9.05386 22.6735 7.70146 22.0991C6.39096 21.5426 5.21808 20.7467 4.2008 19.7354C3.18949 18.7241 2.39362 17.5452 1.8371 16.2347C1.26263 14.8823 0.969415 13.4461 0.969415 11.9681C0.969415 10.49 1.26263 9.05386 1.8371 7.70146C2.39362 6.39096 3.18949 5.21808 4.2008 4.2008C5.2121 3.18949 6.39096 2.39362 7.70146 1.8371C9.05386 1.26263 10.49 0.969415 11.9681 0.969415H33.0319ZM33.0319 0H11.9681C5.38564 0 0 5.38564 0 11.9681C0 18.5505 5.38564 23.9362 11.9681 23.9362H33.0319C39.6144 23.9362 45 18.5505 45 11.9681C45 5.38564 39.6144 0 33.0319 0Z" fill="#3C4043"/>
<path d="M21.4595 12.8177V16.4381H20.3105V7.49792H23.3564C24.1284 7.49792 24.7866 7.75524 25.3252 8.26987C25.8757 8.7845 26.151 9.41282 26.151 10.1548C26.151 10.9148 25.8757 11.5431 25.3252 12.0518C24.7926 12.5604 24.1343 12.8118 23.3564 12.8118H21.4595V12.8177ZM21.4595 8.59899V11.7167H23.3804C23.8351 11.7167 24.2181 11.5611 24.5173 11.2559C24.8225 10.9507 24.9781 10.5797 24.9781 10.1608C24.9781 9.74792 24.8225 9.3829 24.5173 9.07771C24.2181 8.76056 23.8411 8.60497 23.3804 8.60497H21.4595V8.59899Z" fill="#3C4043"/>
<path d="M29.1552 10.1187C30.0049 10.1187 30.6752 10.3461 31.1658 10.8009C31.6565 11.2557 31.9019 11.878 31.9019 12.6679V16.4379H30.8068V15.5881H30.7589C30.2862 16.2883 29.6519 16.6353 28.862 16.6353C28.1858 16.6353 27.6233 16.4379 27.1685 16.0369C26.7137 15.636 26.4863 15.1393 26.4863 14.5409C26.4863 13.9066 26.7257 13.404 27.2044 13.0329C27.6831 12.6559 28.3234 12.4704 29.1193 12.4704C29.8015 12.4704 30.364 12.5961 30.8008 12.8474V12.5841C30.8008 12.1832 30.6452 11.8481 30.3281 11.5669C30.0109 11.2856 29.6399 11.148 29.2151 11.148C28.5748 11.148 28.0661 11.4172 27.6951 11.9618L26.6838 11.3275C27.2403 10.5196 28.0661 10.1187 29.1552 10.1187ZM27.6712 14.5589C27.6712 14.8581 27.7968 15.1094 28.0541 15.3069C28.3055 15.5044 28.6047 15.6061 28.9458 15.6061C29.4305 15.6061 29.8613 15.4266 30.2383 15.0675C30.6153 14.7085 30.8068 14.2896 30.8068 13.8049C30.4478 13.5236 29.9511 13.38 29.3108 13.38C28.844 13.38 28.4551 13.4937 28.1439 13.7151C27.8268 13.9485 27.6712 14.2297 27.6712 14.5589Z" fill="#3C4043"/>
<path d="M38.1489 10.3163L34.3191 19.1248H33.1343L34.5585 16.043L32.0332 10.3163H33.2839L35.103 14.7086H35.127L36.8982 10.3163H38.1489Z" fill="#3C4043"/>
<path d="M16.8883 12.0877C16.8883 11.7131 16.8548 11.3546 16.7925 11.0099H11.9766V12.9847L14.7502 12.9853C14.6377 13.6423 14.2756 14.2024 13.7209 14.5758V15.857H15.3719C16.3359 14.9648 16.8883 13.6459 16.8883 12.0877Z" fill="#4285F4"/>
<path d="M13.7216 14.5757C13.262 14.8856 12.6702 15.0669 11.9779 15.0669C10.6404 15.0669 9.50586 14.1657 9.09954 12.951H7.39648V14.2723C8.24023 15.9466 9.97441 17.0955 11.9779 17.0955C13.3626 17.0955 14.5259 16.6402 15.3726 15.8562L13.7216 14.5757Z" fill="#34A853"/>
<path d="M8.93939 11.9708C8.93939 11.6297 8.99624 11.3 9.09977 10.99V9.6687H7.39671C7.04784 10.3611 6.85156 11.1426 6.85156 11.9708C6.85156 12.799 7.04844 13.5805 7.39671 14.2728L9.09977 12.9515C8.99624 12.6416 8.93939 12.3119 8.93939 11.9708Z" fill="#FABB05"/>
<path d="M11.9779 8.87405C12.7337 8.87405 13.4104 9.13436 13.9448 9.643L15.4079 8.1811C14.5193 7.3535 13.3608 6.84546 11.9779 6.84546C9.97501 6.84546 8.24023 7.99439 7.39648 9.66873L9.09954 10.99C9.50586 9.77525 10.6404 8.87405 11.9779 8.87405Z" fill="#E94235"/>
</svg>
