<svg width="18" height="21" viewBox="0 0 18 21" fill="none" xmlns="http://www.w3.org/2000/svg">
<path fill-rule="evenodd" clip-rule="evenodd" d="M15.5858 5.52759C15.5675 5.64621 15.5462 5.76744 15.5226 5.89201C14.7061 10.1013 11.9125 11.5554 8.34479 11.5554H6.5282C6.09185 11.5554 5.72409 11.8734 5.65624 12.3056L4.46274 19.9068C4.41855 20.1906 4.63636 20.4463 4.92147 20.4463H8.14344C8.52487 20.4463 8.84899 20.168 8.90908 19.7902L8.9407 19.6259L9.54734 15.7606L9.58635 15.5486C9.6457 15.1695 9.97056 14.8911 10.352 14.8911H10.8338C13.9554 14.8911 16.3992 13.6187 17.1134 9.93625C17.4116 8.39801 17.2572 7.11354 16.4678 6.2102C16.2289 5.93786 15.9325 5.71175 15.5858 5.52759Z" fill="#298FC2"/>
<path fill-rule="evenodd" clip-rule="evenodd" d="M14.7318 5.18572C14.607 5.14915 14.4783 5.11611 14.3463 5.08622C14.2135 5.05707 14.0776 5.03127 13.9377 5.00862C13.4479 4.92917 12.9111 4.89148 12.3363 4.89148H7.48338C7.36375 4.89148 7.25022 4.91858 7.14872 4.96759C6.92481 5.07564 6.75859 5.28839 6.71828 5.54884L5.68583 12.1143L5.65625 12.3057C5.72411 11.8735 6.09186 11.5555 6.52821 11.5555H8.3448C11.9125 11.5555 14.7061 10.1006 15.5226 5.8921C15.547 5.76753 15.5675 5.64631 15.5858 5.52768C15.3793 5.41759 15.1556 5.32347 14.9146 5.24327C14.8551 5.22341 14.7937 5.20429 14.7318 5.18572Z" fill="#22284F"/>
<path fill-rule="evenodd" clip-rule="evenodd" d="M6.71912 5.54888C6.75943 5.28843 6.92565 5.07568 7.14955 4.96838C7.2518 4.91918 7.36459 4.89208 7.48421 4.89208H12.3371C12.912 4.89208 13.4487 4.92995 13.9385 5.0094C14.0785 5.03187 14.2144 5.05786 14.3471 5.087C14.4791 5.11671 14.6078 5.14994 14.7326 5.18632C14.7946 5.20489 14.8559 5.22419 14.916 5.24332C15.157 5.32351 15.3809 5.41838 15.5874 5.52772C15.8303 3.97221 15.5854 2.91312 14.7478 1.95409C13.8242 0.898145 12.1576 0.446289 10.0248 0.446289H3.8331C3.39749 0.446289 3.02585 0.764296 2.95855 1.19722L0.379647 17.6105C0.328801 17.9352 0.578223 18.2281 0.904377 18.2281H4.72688L6.71912 5.54888Z" fill="#28356A"/>
</svg>
