<svg width="30" height="30" viewBox="0 0 30 30" fill="none" xmlns="http://www.w3.org/2000/svg">
<path d="M22.8501 22.5333C21.7501 22.5333 20.6835 22.1 19.9001 21.3166L15.6335 17.05C15.3168 16.75 14.8335 16.75 14.5168 17.05L10.2501 21.3166C9.4668 22.1 8.40013 22.5333 7.30013 22.5333H6.4668L11.8668 27.9333C13.5501 29.6166 16.2835 29.6166 17.9668 27.9333L23.3668 22.5166H22.8501V22.5333Z" fill="#32BCAD"/>
<path d="M7.30013 7.46663C8.40013 7.46663 9.4668 7.89997 10.2501 8.6833L14.5168 12.95C14.8335 13.25 15.3335 13.25 15.6335 12.95L19.8835 8.69997C20.6668 7.91664 21.7335 7.46663 22.8335 7.4833H23.3501L17.9501 2.0833C16.2668 0.399967 13.5335 0.399967 11.8501 2.0833L6.4668 7.4833H7.30013V7.46663Z" fill="#32BCAD"/>
<path d="M27.8341 11.95L24.5674 8.68329C24.5674 8.68329 24.4174 8.73329 24.3341 8.73329H22.8508C22.0841 8.73329 21.3341 9.04996 20.7841 9.58329L16.5341 13.8333C15.7341 14.6333 14.4508 14.6333 13.6508 13.8333L9.38412 9.56663C8.83412 9.01663 8.10078 8.71663 7.31745 8.71663H5.50078C5.50078 8.71663 5.35078 8.71663 5.28412 8.66663L2.00078 11.95C0.317448 13.6333 0.317448 16.3666 2.00078 18.05L5.28412 21.3333C5.28412 21.3333 5.43412 21.2833 5.50078 21.2833H7.33412C8.10078 21.2833 8.85078 20.9666 9.40078 20.4333L13.6674 16.1666C14.4341 15.4 15.7841 15.4 16.5508 16.1666L20.8008 20.4166C21.3508 20.9666 22.0841 21.2666 22.8674 21.2666H24.3508C24.3508 21.2666 24.5174 21.2666 24.5841 21.3166L27.8508 18.05C29.5341 16.3666 29.5341 13.6333 27.8508 11.95" fill="#32BCAD"/>
</svg>
