<svg width="26" height="28" viewBox="0 0 26 28" fill="none" xmlns="http://www.w3.org/2000/svg">
<path d="M8.8728 28C4.42766 27.9765 0.75 19.4693 0.75 15.1366C0.75 8.05987 6.41366 6.5108 8.59555 6.5108C9.6165 6.57941 10.6176 6.81027 11.556 7.19352C12.0955 7.41466 12.664 7.5673 13.2466 7.64741C13.6652 7.5712 14.0724 7.44756 14.4591 7.27921C15.6081 6.78262 16.8496 6.50113 18.1137 6.45053H18.1217C19.3459 6.42736 20.5575 6.68581 21.6504 7.20326C22.7434 7.7207 23.6844 8.48138 24.3911 9.41872L24.8482 10.0628L24.1902 10.528C23.4024 10.9777 22.7469 11.6047 22.2832 12.3521C21.8196 13.0996 21.5624 13.9437 21.5352 14.808C21.5082 15.7324 21.7649 16.6447 22.2747 17.4364C22.7845 18.2281 23.526 18.866 24.4112 19.2744C24.8231 19.507 25.25 19.7452 25.25 20.2697C25.25 20.6116 22.3368 27.9567 18.1086 27.9567C17.2719 27.9405 16.4491 27.7532 15.6977 27.4077C15.0309 27.0947 14.2967 26.9288 13.551 26.9227C12.9635 26.9804 12.3896 27.126 11.8513 27.354C10.9188 27.7361 9.91952 27.9548 8.90294 27.9991L8.8728 28Z" fill="black"/>
<path d="M18.5627 0C18.6732 3.72341 15.8323 6.30928 12.9955 6.14354C12.5274 3.17253 15.8313 0 18.5627 0Z" fill="black"/>
</svg>
