<svg width="28" height="28" viewBox="0 0 28 28" fill="none" xmlns="http://www.w3.org/2000/svg">
<path d="M6.20471 16.9178L5.23017 20.5559L1.66815 20.6312C0.590719 18.6246 0.0183146 16.3858 0.000432278 14.1083C-0.01745 11.8309 0.519728 9.58333 1.56552 7.56006L4.73678 8.14097L6.12562 11.2932C5.50064 13.1207 5.52826 15.1084 6.20377 16.9178H6.20471Z" fill="#FBBB00"/>
<path d="M27.7535 11.3823C28.2285 13.8782 28.0149 16.4563 27.1357 18.84C26.2566 21.2237 24.745 23.3231 22.7631 24.9129L18.7689 24.7096L18.2039 21.1807C19.8532 20.2138 21.1203 18.7098 21.7932 16.9204H14.3076V11.3823H27.7544H27.7535Z" fill="#518EF8"/>
<path d="M22.7614 24.9124C21.1595 26.1975 19.2946 27.1145 17.2987 27.5984C15.3029 28.0824 13.225 28.1214 11.2123 27.7128C9.1997 27.3042 7.30158 26.4579 5.65251 25.234C4.00344 24.01 2.64379 22.4383 1.66992 20.6304L6.20648 16.917C6.63245 18.0523 7.30132 19.0809 8.16632 19.9309C9.03131 20.7808 10.0716 21.4315 11.2143 21.8374C12.357 22.2434 13.5746 22.3948 14.782 22.2811C15.9894 22.1674 17.1573 21.7914 18.2042 21.1793L22.7614 24.9124Z" fill="#28B446"/>
<path d="M22.9338 3.22246L18.3963 6.93489C17.3337 6.27377 16.1357 5.86073 14.8914 5.72649C13.6471 5.59225 12.3886 5.74027 11.2094 6.15954C10.0302 6.57881 8.96079 7.25853 8.0806 8.14815C7.20042 9.03777 6.53216 10.1144 6.12553 11.2979L1.56543 7.56006C2.5275 5.7032 3.89335 4.08545 5.56266 2.82563C7.23196 1.5658 9.16231 0.695915 11.2119 0.279866C13.2615 -0.136184 15.3783 -0.0878265 17.4067 0.421385C19.4352 0.930596 21.3238 1.88773 22.9338 3.22246Z" fill="#F14336"/>
</svg>
